<?xml version="1.0" encoding="utf-8"?>
<!-- Generator: Adobe Illustrator 19.0.0, SVG Export Plug-In . SVG Version: 6.00 Build 0)  -->
<svg version="1.1" id="Layer_1" xmlns="http://www.w3.org/2000/svg" xmlns:xlink="http://www.w3.org/1999/xlink" x="0px" y="0px"
	 viewBox="0 0 1200 600" style="enable-background:new 0 0 1200 600;" xml:space="preserve">
<style type="text/css">
	.st0{fill:#5D5D5D;}
	.st1{fill:#F4F4F4;}
	.st2{fill:#F1F1F1;}
</style>
<path id="XMLID_5_" class="st0" d="M436.2,519.6c-1.2,0-2.2,0-3.3,0.1l51.9-0.1C468.5,519.6,452.3,519.6,436.2,519.6z"/>
<path id="XMLID_68_" class="st1" d="M1347.1-13.4c6.9-10.4,15.1-15.5,27.9-15.2c23.7,0.6,47.4,0,71.1,0c2.8,0,5.6,0,9.7,0
	c-1.2,5.5-2,9.9-3.2,14.2"/>
<path id="XMLID_77_" class="st2" d="M1200,202.9v194c0,0-4.7,0.8-7.8,1.4c-72.9,14.4-146.4,23.6-220.9,23.4
	c-36.7-0.1-73.4,0.2-110.2-0.1l-83.4,0l0.2,0L892,600H692L512.4,421.5h-3.2c-84.4,0.4-168.9,0.1-253.3,0.3
	c-53.1,0.1-104.5-9.4-154.2-27.8c-29.7-11-58-24.7-80.6-47.8C7.1,331.9-0.1,316,0,300c-0.1-16,7.1-31.9,21.1-46.2
	c22.6-23.1,50.9-36.8,80.6-47.7c49.7-18.4,101.1-27.9,154.2-27.8c84.4,0.1,168.9-0.1,253.3,0.3L692,0h200L778,178.4l83.2,0
	c36.7-0.3,73.4,0,110.2-0.1c74.5-0.2,148,9,220.9,23.4C1195.3,202.3,1200,202.9,1200,202.9z"/>
</svg>
